<!DOCTYPE svg PUBLIC "-//W3C//DTD SVG 1.1//EN" "http://www.w3.org/Graphics/SVG/1.1/DTD/svg11.dtd">
<!-- Uploaded to: SVG Repo, www.svgrepo.com, Transformed by: SVG Repo Mixer Tools -->
<svg fill="#ffffff" height="800px" width="800px" version="1.1" id="Capa_1" xmlns="http://www.w3.org/2000/svg" xmlns:xlink="http://www.w3.org/1999/xlink" viewBox="0 0 279 279" xml:space="preserve" stroke="#ffffff">
<g id="SVGRepo_bgCarrier" stroke-width="0"/>
<g id="SVGRepo_tracerCarrier" stroke-linecap="round" stroke-linejoin="round"/>
<g id="SVGRepo_iconCarrier"> <path d="M250.333,85.5H230v-8.833c0-26.56-21.274-48.167-47.833-48.167H97.5C70.94,28.5,49,50.107,49,76.667V85.5H29.333 C13.343,85.5,0,98.51,0,114.5v107c0,15.99,13.343,29,29.333,29h221c15.99,0,28.667-13.01,28.667-29v-107 C279,98.51,266.323,85.5,250.333,85.5z M64,76.667C64,58.379,79.212,43.5,97.5,43.5h84.667C200.455,43.5,215,58.379,215,76.667V85.5 H64V76.667z M239.333,126.5h-198c-4.143,0-7.5-3.357-7.5-7.5s3.357-7.5,7.5-7.5h198c4.143,0,7.5,3.357,7.5,7.5 S243.476,126.5,239.333,126.5z"/> </g>
</svg>